<svg id="Layer_1" data-name="Layer 1" xmlns="http://www.w3.org/2000/svg" viewBox="0 0 318.66 360.96"><defs><style>.cls-1{fill:#010101;stroke:#fff;stroke-miterlimit:10;stroke-width:2px;}.cls-2{fill:#fff;}</style></defs><title>AWS</title><path class="cls-1" d="M159.33,359.9c106.73-36.41,127.72-102.72,133.73-130.59,8.78-40.8,24.48-177,24.48-177C207.67,50.39,159.33,1.42,159.33,1.42S111,50.39,1.12,52.27c0,0,15.69,136.24,24.48,177C31.6,257.18,52.6,323.49,159.33,359.9Z"/><path class="cls-2" d="M89.9,118.85l-6.1,6.91,9.61,25.55L95.75,150l-8.67-23.08,6.21-7.15,1.53.64-5.92,6.86,8.2,21.85c.47-.35.74-.56.82-.64l1.94-1.64a16.89,16.89,0,0,0,2.22-2,40.78,40.78,0,0,0,4.69,11.95q-1.69-.12-2.46-.12-5.57,0-8.15,1.76l10.61,28.77,8.79,6.8H86l8.09-6.8-6.51-17.11a64.88,64.88,0,0,0-9.9,12.36l-1.35-.35A74.91,74.91,0,0,1,86.61,169.3l.47-.59L86,166.14a51.89,51.89,0,0,0-11.54,13.47l-1.06-1.7q-3-4.86-7.79-11.07l-.59-.7c-3,6.67-4.51,12.11-4.51,16.28a13.93,13.93,0,0,0,1.26,6.24,56.9,56.9,0,0,0,6.07,8.53l1.28,1.64H37.45l-1.17-1.58H66.11l-1-1.23a38.19,38.19,0,0,1-5.07-7.3,14.53,14.53,0,0,1-1.2-6.12q0-6,4.86-17.81l-2.57-2.7q-.77,1.88-1.94,5.51l-1.93,6a26.37,26.37,0,0,0-1.58,8A11.86,11.86,0,0,0,56.79,187a28.78,28.78,0,0,0,4.69,5.92L62.53,194H33.23a35,35,0,0,0,13.28-11.66Q51.4,175,56.2,159.75l.24-.82q-3.11-2.64-9-3.22a42.19,42.19,0,0,0,5-10c.55.5.88.82,1,.93l2.64,2.46a29.24,29.24,0,0,0,3.22,2.64l1-2.58-.7-.58q-2.92-2.58-4.92-4.16l-.53-.41.94-1.29a46,46,0,0,1,6,4.74l8-21.91-6.21-6.68Zm-17.11,12-9.32,24.61a82.64,82.64,0,0,1,7.68,9l2.69,3.75s.23.3.59.77a4.93,4.93,0,0,0,.58-.65l.82-1c.12-.16.33-.41.65-.77a61.67,61.67,0,0,0-9.55-11.42l7.5-19.81Zm2.63,6.8-6.44,17a6.91,6.91,0,0,1,.58.7l2.41,2.7a59.55,59.55,0,0,1,4.92,6.56l.58.88a51.78,51.78,0,0,1,6-6.27Zm31.82,10q1.29,5.26,6.44,14.47c-.86-.12-1.34-.17-1.46-.17l-4.75-.42c-2.15-.19-3.71-.29-4.68-.29l-1.18.06,9.79,26,13.07,11.54H90.54l-1.11-1.58h31.11L110,187.93l-10.43-27.6a18,18,0,0,1,4.57-.52,52.48,52.48,0,0,1,7,.52l-.7-1.28a50.81,50.81,0,0,1-5-12.49Z"/><path class="cls-2" d="M225.42,98.75a72,72,0,0,0-12.27,17.87q-4.14,8.91-9.76,29.48L193.25,183l1.18,4.57,7.2,6.45H174.91l7.68-6.45L172.22,150l-10.08,36.74,10.08,12.07H142.28l-1.17-1.58H169l-8.79-10.14L171.28,147l-1.93-7-12,43.89.93,3.63,6.86,6.45H138.35l8-6.45-17-61.35-8.79-7.38h28.65l-8,7.38,13.41,48.28,2-7.09-11.3-40.31,5.33-4.74,1.35.93-4.87,4.34,10.26,36.85,12.54-45.64h5.5l15.24,55.2,1.87-6.63L179,118.85h1.64l12.59,45.64,5.51-19.8q5.16-18.63,5.16-24.26,0-6.27-5.86-9.84a115.64,115.64,0,0,0,14.71-5.92,67.55,67.55,0,0,0,11.71-6.74Zm3.52,4.46a69,69,0,0,0-11.57,17.46q-4.55,9.72-9.29,27.18l-10.37,37.86L209,198.83H178.9l-1.35-1.58h27.83l-9.49-11L206.67,147q4.8-17.46,9.2-26.86a79.17,79.17,0,0,1,11.72-18Z"/><path class="cls-2" d="M276.28,119.49a39.22,39.22,0,0,0-4.86,8.56q-3.59,8.79-4.75,10.78l-.29.35c-.16-.43-.28-.76-.35-1a51.7,51.7,0,0,0-2.7-7.33,13.84,13.84,0,0,0-3.16-3.92A17.73,17.73,0,0,0,248,122.19a15.65,15.65,0,0,0-10.43,3.49,11,11,0,0,0-4.16,8.76q0,9.84,14.82,13.41l9.91,2.41q21.15,5.09,21.15,22.32a20.85,20.85,0,0,1-7.24,16.14q-7.23,6.54-17.9,6.54a63,63,0,0,1-14.94-2l-6.85-1.7a30.4,30.4,0,0,0-6.86-1,14.27,14.27,0,0,0-7.38,2.29l-.47-.82a78.76,78.76,0,0,0,10.19-20.86l1.06.29q1.23,9.19,7.38,14.3t16.11,5.09q7.86,0,12.48-3.63a11.77,11.77,0,0,0,4.63-9.78q0-7.09-6.44-11.72-4.64-3.28-19-6.1-11.07-2.16-16.05-7.2t-5-14a19,19,0,0,1,6.65-15q6.65-5.76,17.31-5.77A62.69,62.69,0,0,1,263,120a26.88,26.88,0,0,0,6.33,1.17,12.58,12.58,0,0,0,6.27-2Zm0,37.39q8,6,8,16.52a24.51,24.51,0,0,1-8.67,19,30.52,30.52,0,0,1-21.1,7.76,46.64,46.64,0,0,1-11.42-1.29l-9.38-2.28a28.71,28.71,0,0,0-7-.82,14.05,14.05,0,0,0-6.15,1.34l-.7-1.7A14.78,14.78,0,0,1,226,194a35.94,35.94,0,0,1,8,1.05l9,2.17a48.67,48.67,0,0,0,11.37,1.29A28.64,28.64,0,0,0,274.38,191a23.57,23.57,0,0,0,8.23-18.08,22.22,22.22,0,0,0-6.33-15.7Zm-49-2.11,2,1.11q1.94,3.47,11.31,5.74L250,164q9.61,2.4,12.81,4.13a9.74,9.74,0,0,1,4.54,5.24l-.41.24a17.06,17.06,0,0,0-5.72-4.46,74.15,74.15,0,0,0-11.8-3.45q-12.66-2.94-17-5.07T227.24,154.77Zm7.32,19q2.17,10.55,11.6,14.94v.47Q235.27,186,233,174.05Zm28.25-40.13q-6.45-6.85-13.83-6.86a10.79,10.79,0,0,0-7.39,2.58,8.37,8.37,0,0,0-2.93,6.56q0,4.33,5.92,8.91l.47.29-.29.47q-7.74-3.47-7.74-10a9.41,9.41,0,0,1,3.29-7.44,12.46,12.46,0,0,1,8.55-2.87,17.56,17.56,0,0,1,8.82,2.14,12.88,12.88,0,0,1,5.54,6ZM279.91,122l-.52.87a82,82,0,0,0-4.1,7.74q-4.11,8.61-4.63,9.61l-.3.41L269,140l.23-.52q1.69-3.87,4.92-10.08l4-7.74.29-.47Z"/><path class="cls-2" d="M50.44,223.55H43.17l-1.08,2.25a1.83,1.83,0,0,0-.22.74q0,.51.78.72v.37H37.36v-.37a1.52,1.52,0,0,0,.71-.33,3.06,3.06,0,0,0,.57-.92l5.88-12.29a2.28,2.28,0,0,0,.28-.94c0-.36-.23-.61-.68-.77v-.38h5.67V212q-.69.19-.69.69a1.78,1.78,0,0,0,.22.77l6.1,12.33a4,4,0,0,0,.68,1.07,1.48,1.48,0,0,0,.78.39v.37H51v-.37c.52-.09.78-.33.78-.73a1.94,1.94,0,0,0-.23-.73Zm-1-2.19-2.59-5.7-2.64,5.7Z"/><path class="cls-2" d="M61.84,225.25h7.35a.81.81,0,0,0,.56-.16,1.24,1.24,0,0,0,.32-.59h.31v3.88h-.31a1.2,1.2,0,0,0-.31-.59.92.92,0,0,0-.57-.16H58v-.33a1.13,1.13,0,0,0,.58-.3.87.87,0,0,0,.17-.56V215.7a.8.8,0,0,0-.16-.55,1.29,1.29,0,0,0-.59-.32v-.32h4.64v.32a1.29,1.29,0,0,0-.59.31.91.91,0,0,0-.16.56Z"/><path class="cls-2" d="M75.62,225.25H83a.81.81,0,0,0,.56-.16,1.24,1.24,0,0,0,.32-.59h.31v3.88h-.31a1.2,1.2,0,0,0-.31-.59.92.92,0,0,0-.57-.16H71.73v-.33a1.13,1.13,0,0,0,.58-.3.87.87,0,0,0,.17-.56V215.7a.8.8,0,0,0-.16-.55,1.29,1.29,0,0,0-.59-.32v-.32h4.64v.32a1.24,1.24,0,0,0-.58.31.85.85,0,0,0-.17.56Z"/><path class="cls-2" d="M103.93,216.36l-3.65,9.24a3.4,3.4,0,0,0-.32.89c0,.36.29.62.87.77v.37H95.68v-.37c.52-.11.78-.37.78-.8a4.78,4.78,0,0,0-.33-1l-4.58-11.81a4.05,4.05,0,0,0-.62-1.18,1.37,1.37,0,0,0-.8-.42v-.38h5.56V212c-.49.11-.74.34-.74.69a2.28,2.28,0,0,0,.19.77l3.16,8.47,3.43-8.51a2.52,2.52,0,0,0,.22-.73q0-.54-.78-.69v-.38H107V212c-.53.14-.8.39-.8.76a2.48,2.48,0,0,0,.2.7l3.27,8.47,3.15-8.33a3,3,0,0,0,.25-.92c0-.34-.28-.57-.85-.68v-.38h5.5V212a1.69,1.69,0,0,0-.81.42,5.2,5.2,0,0,0-.58,1.18l-4.59,11.81a4,4,0,0,0-.33,1.12q0,.57.84.72v.37H107v-.37c.55-.09.82-.35.82-.79a3.84,3.84,0,0,0-.36-1.05Z"/><path class="cls-2" d="M122.16,222.05v3.2h8.33a.85.85,0,0,0,.56-.16,1.24,1.24,0,0,0,.31-.59h.32v3.88h-.32a1.13,1.13,0,0,0-.31-.58.85.85,0,0,0-.56-.17H118.27v-.33a1.17,1.17,0,0,0,.58-.3.87.87,0,0,0,.17-.56V215.7a.8.8,0,0,0-.17-.55,1.24,1.24,0,0,0-.58-.32v-.32h11.86a.83.83,0,0,0,.56-.17,1.09,1.09,0,0,0,.31-.58h.32v3.87H131a1.05,1.05,0,0,0-.31-.58.83.83,0,0,0-.56-.17h-8v2.89h4.94a.85.85,0,0,0,.56-.17A1.16,1.16,0,0,0,128,219h.32v3.78H128a1.21,1.21,0,0,0-.31-.58.86.86,0,0,0-.57-.17Z"/><path class="cls-2" d="M143.61,224.35h-6l-.68,1.43a2.06,2.06,0,0,0-.24.81c0,.37.25.61.75.71v.33h-4.83v-.33a1.18,1.18,0,0,0,.67-.27,3,3,0,0,0,.51-.78l4.79-9.71a2.2,2.2,0,0,0,.27-1q0-.48-.66-.75v-.32h5.1v.32a.86.86,0,0,0-.64.8,2.1,2.1,0,0,0,.29,1l5,9.41a4.65,4.65,0,0,0,.64,1,1.42,1.42,0,0,0,.72.32v.33h-5.36v-.33c.5-.08.76-.32.76-.71a2,2,0,0,0-.3-.9Zm-1-1.84-2.15-4.22-2,4.22Z"/><path class="cls-2" d="M157.56,216.88v9.54a.83.83,0,0,0,.16.56,1.2,1.2,0,0,0,.59.32v.33h-4.64v-.33a1.13,1.13,0,0,0,.58-.3.87.87,0,0,0,.17-.56v-9.56h-3.87a.86.86,0,0,0-.57.17,1.21,1.21,0,0,0-.31.58h-.31v-3.87h.31a1.17,1.17,0,0,0,.3.58.86.86,0,0,0,.57.17h10.89a.83.83,0,0,0,.56-.17,1.16,1.16,0,0,0,.32-.58h.31v3.87h-.31a1.21,1.21,0,0,0-.32-.58.81.81,0,0,0-.56-.17Z"/><path class="cls-2" d="M175.35,221.91H168v4.51a.83.83,0,0,0,.17.56,1.16,1.16,0,0,0,.58.32v.33h-4.64v-.33a1.09,1.09,0,0,0,.58-.3.87.87,0,0,0,.17-.56V215.7a.8.8,0,0,0-.16-.55,1.29,1.29,0,0,0-.59-.32v-.32h4.64v.32a1.16,1.16,0,0,0-.58.31.85.85,0,0,0-.17.56v3.83h7.34V215.7a.8.8,0,0,0-.16-.55,1.24,1.24,0,0,0-.59-.32v-.32h4.64v.32a1.29,1.29,0,0,0-.59.31.85.85,0,0,0-.16.56v10.72a.83.83,0,0,0,.16.56,1.2,1.2,0,0,0,.59.32v.33H174.6v-.33a1.17,1.17,0,0,0,.58-.3.88.88,0,0,0,.17-.57Z"/><path class="cls-2" d="M185.43,222.05v3.2h8.33a.8.8,0,0,0,.55-.16,1.16,1.16,0,0,0,.32-.59H195v3.88h-.32a1.13,1.13,0,0,0-.31-.58.85.85,0,0,0-.56-.17H181.54v-.33a1.17,1.17,0,0,0,.58-.3.87.87,0,0,0,.17-.56V215.7a.8.8,0,0,0-.17-.55,1.24,1.24,0,0,0-.58-.32v-.32H193.4a.83.83,0,0,0,.56-.17,1.09,1.09,0,0,0,.31-.58h.32v3.87h-.32a1.05,1.05,0,0,0-.31-.58.83.83,0,0,0-.56-.17h-8v2.89h4.94a.85.85,0,0,0,.56-.17,1.24,1.24,0,0,0,.32-.58h.32v3.78h-.32a1.21,1.21,0,0,0-.31-.58.86.86,0,0,0-.57-.17Z"/><path class="cls-2" d="M200.82,222.24v4.19a.82.82,0,0,0,.17.55,1.16,1.16,0,0,0,.58.32v.33h-4.64v-.33a1.09,1.09,0,0,0,.58-.3.82.82,0,0,0,.17-.56V215.7a.8.8,0,0,0-.16-.55,1.24,1.24,0,0,0-.59-.32v-.32h8.61a13.82,13.82,0,0,1,2.55.17,4.26,4.26,0,0,1,1.57.61,3.34,3.34,0,0,1,1.42,3,3.4,3.4,0,0,1-.87,2.49,5.46,5.46,0,0,1-2.82,1.3l2.48,3.46a7.39,7.39,0,0,0,1.09,1.3,1.88,1.88,0,0,0,.92.44v.33h-5.52v-.33c.4-.11.61-.28.61-.52a1.64,1.64,0,0,0-.38-.79L204,222.24Zm0-2.38h4.74a4.17,4.17,0,0,0,1.59-.23,1.23,1.23,0,0,0,.73-1.26,1.28,1.28,0,0,0-.51-1.16,3.55,3.55,0,0,0-1.81-.33h-4.74Z"/><path class="cls-2" d="M234.59,213l-1.91,3.77-.33-.19a1.42,1.42,0,0,0,0-.19c0-.27-.23-.55-.68-.86a8.41,8.41,0,0,0-4.9-1.45,6.93,6.93,0,0,0-2.19.31,2.61,2.61,0,0,0-1.12.7,1.5,1.5,0,0,0-.43,1c0,.6.37,1,1.09,1.23a18,18,0,0,0,2.42.35l1.84.18a15.58,15.58,0,0,1,2.65.48,6.25,6.25,0,0,1,1.8.86,4.05,4.05,0,0,1,1.26,1.51,4.42,4.42,0,0,1,.46,2,4.53,4.53,0,0,1-1.09,3,5.77,5.77,0,0,1-3.06,1.77,12.15,12.15,0,0,1-3.31.43,14.12,14.12,0,0,1-6.27-1.52,3.62,3.62,0,0,0-.79-.31,1,1,0,0,0-.48.26l-.34-.17,1.74-3.93.34.16v.16a1.31,1.31,0,0,0,.5,1,6.46,6.46,0,0,0,2.36,1.17,10.17,10.17,0,0,0,3,.49,6.13,6.13,0,0,0,2.66-.52,2.62,2.62,0,0,0,1-.78,1.64,1.64,0,0,0,.37-1,1.19,1.19,0,0,0-.86-1.14,11.64,11.64,0,0,0-2.41-.43l-1.81-.19a24.73,24.73,0,0,1-2.56-.35,7,7,0,0,1-1.5-.55,3.88,3.88,0,0,1-1.68-1.58,4.27,4.27,0,0,1-.55-2.19,4.41,4.41,0,0,1,1.39-3.35,7.7,7.7,0,0,1,5.49-1.75,13,13,0,0,1,2.86.31,22.83,22.83,0,0,1,3.3,1.15,3.76,3.76,0,0,0,.83.27,1,1,0,0,0,.58-.27Z"/><path class="cls-2" d="M240.59,222.05v3.2h8.33a.85.85,0,0,0,.56-.16,1.24,1.24,0,0,0,.31-.59h.32v3.88h-.32a1.13,1.13,0,0,0-.31-.58.85.85,0,0,0-.56-.17H236.7v-.33a1.17,1.17,0,0,0,.58-.3.87.87,0,0,0,.17-.56V215.7a.8.8,0,0,0-.17-.55,1.24,1.24,0,0,0-.58-.32v-.32h11.86a.83.83,0,0,0,.56-.17,1.09,1.09,0,0,0,.31-.58h.32v3.87h-.32a1.05,1.05,0,0,0-.31-.58.83.83,0,0,0-.56-.17h-8v2.89h4.94a.85.85,0,0,0,.56-.17,1.24,1.24,0,0,0,.32-.58h.32v3.78h-.32a1.21,1.21,0,0,0-.31-.58.86.86,0,0,0-.57-.17Z"/><path class="cls-2" d="M262,224.35h-6l-.68,1.43a2.06,2.06,0,0,0-.24.81c0,.37.25.61.75.71v.33H251v-.33a1.18,1.18,0,0,0,.67-.27,3,3,0,0,0,.51-.78l4.79-9.71a2.2,2.2,0,0,0,.27-1q0-.48-.66-.75v-.32h5.1v.32a.86.86,0,0,0-.64.8,2.1,2.1,0,0,0,.29,1l5,9.41a4.65,4.65,0,0,0,.64,1,1.42,1.42,0,0,0,.72.32v.33H262.3v-.33c.5-.08.76-.32.76-.71a2,2,0,0,0-.3-.9Zm-1-1.84-2.15-4.22-2,4.22Z"/><path class="cls-2" d="M272.64,225.25H280a.86.86,0,0,0,.57-.16,1.24,1.24,0,0,0,.31-.59h.32v3.88h-.32a1.12,1.12,0,0,0-.31-.59.92.92,0,0,0-.57-.16H268.75v-.33a1.17,1.17,0,0,0,.58-.3.87.87,0,0,0,.17-.56V215.7a.8.8,0,0,0-.17-.55,1.24,1.24,0,0,0-.58-.32v-.32h4.64v.32a1.29,1.29,0,0,0-.59.31.85.85,0,0,0-.16.56Z"/></svg>